<svg width="1224" height="260" viewBox="0 0 1224 260" fill="none" xmlns="http://www.w3.org/2000/svg">
<path d="M0 5.99999C0 2.68629 2.68629 0 6 0H79.1716C79.702 0 80.2107 0.210714 80.5858 0.585786L91.4142 11.4142C91.7893 11.7893 92.298 12 92.8284 12H1218C1221.31 12 1224 14.6863 1224 18V254C1224 257.314 1221.31 260 1218 260H832.828C832.298 260 831.789 259.789 831.414 259.414L820.586 248.586C820.211 248.211 819.702 248 819.172 248H5.99999C2.68629 248 0 245.314 0 242V5.99999Z" fill="url(#paint0_linear_2315_6660)"/>
<defs>
<linearGradient id="paint0_linear_2315_6660" x1="57.8778" y1="55.9644" x2="798.486" y2="820.424" gradientUnits="userSpaceOnUse">
<stop stop-color="#FF0000"/>
<stop offset="1" stop-color="#E415C3"/>
</linearGradient>
</defs>
</svg>
